<svg width="30" height="26" viewBox="0 0 30 26" fill="none" xmlns="http://www.w3.org/2000/svg">
<path d="M5 0.5C3.67392 0.5 2.40215 1.02678 1.46447 1.96447C0.526784 2.90215 0 4.17392 0 5.5V6.0025L15 14.08L30 6.005V5.5C30 4.17392 29.4732 2.90215 28.5355 1.96447C27.5979 1.02678 26.3261 0.5 25 0.5H5ZM30 8.8425L15.5925 16.6C15.4104 16.698 15.2068 16.7493 15 16.7493C14.7932 16.7493 14.5896 16.698 14.4075 16.6L0 8.8425V20.5C0 21.8261 0.526784 23.0979 1.46447 24.0355C2.40215 24.9732 3.67392 25.5 5 25.5H25C26.3261 25.5 27.5979 24.9732 28.5355 24.0355C29.4732 23.0979 30 21.8261 30 20.5V8.8425Z" fill="#0FA958"/>
</svg>
