<svg width="34" height="34" viewBox="0 0 34 34" fill="none" xmlns="http://www.w3.org/2000/svg">
<path d="M16.6667 3.66683C24.0183 3.66683 30 9.6485 30 17.0002C30 24.3518 24.0183 30.3335 16.6667 30.3335C9.315 30.3335 3.33333 24.3518 3.33333 17.0002C3.33333 9.6485 9.315 3.66683 16.6667 3.66683ZM16.6667 0.333496C7.46167 0.333496 0 7.79516 0 17.0002C0 26.2052 7.46167 33.6668 16.6667 33.6668C25.8717 33.6668 33.3333 26.2052 33.3333 17.0002C33.3333 7.79516 25.8717 0.333496 16.6667 0.333496ZM23 26.0002L18.3333 16.4452V8.66683H15V17.5552L20.3333 24.6652L23 22.6668V26.0002Z" fill="#0FA958"/>
</svg>
